<svg width="440" height="30" xmlns="http://www.w3.org/2000/svg">
    <path fill="#266643" d="m0 8A8 8 0 0 1 8 0H15l6 4 3 0 6-4H195v5 c0 10-8-8-8,7.5s8-2.5 8 7.5v5H29.5l-6 4-3 0-6-4H8a8 8 0 0 1-8-8z"/>
    <rect fill="#A8C2B4" x="88" rx="5" ry="4" y="5" height="16" width="93"/>
    <text fill="white" x="10" y="18" font-family="Arial" font-size="11pt">
        <tspan>FAST-ERA</tspan>
        <tspan fill="black" dx="8">2024-2026</tspan>
        <tspan fill="#266643">▾</tspan>
    </text>
    <path transform="translate(195,0.0)" fill="#BF4343" d="m0 0H245v25H0V20c0-10-8 8-8-7.5s8 2.5 8-7.5z"/>
    <rect transform="translate(195,0.0)" fill="#E5B4B4" x="80" rx="4" ry="4" y="5" height="16" width="160"/>
    <text transform="translate(195,0.0)" fill="white" x="10" y="18" font-family="Arial" font-size="11pt">
        <tspan>FAST-CLI</tspan>
        <tspan dx="8" fill="black">6.6.0 13.06.26.15.28</tspan>
        <tspan fill="#BF4343">▾</tspan>
    </text>
</svg>
